<mxfile host="Electron" agent="Mozilla/5.0 (Windows NT 10.0; Win64; x64) AppleWebKit/537.36 (KHTML, like Gecko) draw.io/26.0.9 Chrome/128.0.6613.186 Electron/32.2.5 Safari/537.36" version="26.0.9">
  <diagram id="prtHgNgQTEPvFCAcTncT" name="Page-1">
    <mxGraphModel dx="1506" dy="331" grid="1" gridSize="10" guides="1" tooltips="1" connect="1" arrows="1" fold="1" page="1" pageScale="1" pageWidth="827" pageHeight="1169" math="0" shadow="0">
      <root>
        <mxCell id="0" />
        <mxCell id="1" parent="0" />
        <mxCell id="T6YAHszyVavbDTHl4T6u-46" value="" style="edgeStyle=orthogonalEdgeStyle;rounded=0;orthogonalLoop=1;jettySize=auto;html=1;" edge="1" parent="1" source="T6YAHszyVavbDTHl4T6u-1" target="T6YAHszyVavbDTHl4T6u-45">
          <mxGeometry relative="1" as="geometry" />
        </mxCell>
        <mxCell id="T6YAHszyVavbDTHl4T6u-54" value="" style="edgeStyle=orthogonalEdgeStyle;rounded=0;orthogonalLoop=1;jettySize=auto;html=1;" edge="1" parent="1" source="T6YAHszyVavbDTHl4T6u-1" target="T6YAHszyVavbDTHl4T6u-53">
          <mxGeometry relative="1" as="geometry" />
        </mxCell>
        <mxCell id="T6YAHszyVavbDTHl4T6u-1" value="&lt;font style=&quot;font-size: 18px;&quot;&gt;filme&lt;/font&gt;" style="whiteSpace=wrap;html=1;" vertex="1" parent="1">
          <mxGeometry x="80" y="140" width="120" height="60" as="geometry" />
        </mxCell>
        <mxCell id="T6YAHszyVavbDTHl4T6u-3" value="titulos" style="text;html=1;align=center;verticalAlign=middle;resizable=0;points=[];autosize=1;strokeColor=none;fillColor=none;" vertex="1" parent="1">
          <mxGeometry x="125" y="290" width="50" height="30" as="geometry" />
        </mxCell>
        <mxCell id="T6YAHszyVavbDTHl4T6u-5" value="id" style="text;html=1;align=center;verticalAlign=middle;resizable=0;points=[];autosize=1;strokeColor=none;fillColor=none;" vertex="1" parent="1">
          <mxGeometry x="125" y="250" width="30" height="30" as="geometry" />
        </mxCell>
        <mxCell id="T6YAHszyVavbDTHl4T6u-6" value="duracao" style="text;html=1;align=center;verticalAlign=middle;resizable=0;points=[];autosize=1;strokeColor=none;fillColor=none;" vertex="1" parent="1">
          <mxGeometry x="125" y="330" width="70" height="30" as="geometry" />
        </mxCell>
        <mxCell id="T6YAHszyVavbDTHl4T6u-7" value="ano" style="text;html=1;align=center;verticalAlign=middle;resizable=0;points=[];autosize=1;strokeColor=none;fillColor=none;" vertex="1" parent="1">
          <mxGeometry x="125" y="370" width="40" height="30" as="geometry" />
        </mxCell>
        <mxCell id="T6YAHszyVavbDTHl4T6u-8" value="genero" style="text;html=1;align=center;verticalAlign=middle;resizable=0;points=[];autosize=1;strokeColor=none;fillColor=none;" vertex="1" parent="1">
          <mxGeometry x="125" y="408" width="60" height="30" as="geometry" />
        </mxCell>
        <mxCell id="T6YAHszyVavbDTHl4T6u-47" value="" style="edgeStyle=orthogonalEdgeStyle;rounded=0;orthogonalLoop=1;jettySize=auto;html=1;" edge="1" parent="1" source="T6YAHszyVavbDTHl4T6u-10" target="T6YAHszyVavbDTHl4T6u-45">
          <mxGeometry relative="1" as="geometry" />
        </mxCell>
        <mxCell id="T6YAHszyVavbDTHl4T6u-10" value="atores" style="whiteSpace=wrap;html=1;" vertex="1" parent="1">
          <mxGeometry x="450" y="140" width="120" height="60" as="geometry" />
        </mxCell>
        <mxCell id="T6YAHszyVavbDTHl4T6u-11" value="id" style="text;html=1;align=center;verticalAlign=middle;resizable=0;points=[];autosize=1;strokeColor=none;fillColor=none;" vertex="1" parent="1">
          <mxGeometry x="500" y="248" width="30" height="30" as="geometry" />
        </mxCell>
        <mxCell id="T6YAHszyVavbDTHl4T6u-12" value="nome" style="text;html=1;align=center;verticalAlign=middle;resizable=0;points=[];autosize=1;strokeColor=none;fillColor=none;" vertex="1" parent="1">
          <mxGeometry x="500" y="288" width="50" height="30" as="geometry" />
        </mxCell>
        <mxCell id="T6YAHszyVavbDTHl4T6u-14" value="dataNas" style="text;html=1;align=center;verticalAlign=middle;resizable=0;points=[];autosize=1;strokeColor=none;fillColor=none;" vertex="1" parent="1">
          <mxGeometry x="500" y="330" width="70" height="30" as="geometry" />
        </mxCell>
        <mxCell id="T6YAHszyVavbDTHl4T6u-15" value="sexo" style="text;html=1;align=center;verticalAlign=middle;resizable=0;points=[];autosize=1;strokeColor=none;fillColor=none;" vertex="1" parent="1">
          <mxGeometry x="500" y="370" width="50" height="30" as="geometry" />
        </mxCell>
        <mxCell id="T6YAHszyVavbDTHl4T6u-17" value="nacionalidade" style="text;html=1;align=center;verticalAlign=middle;resizable=0;points=[];autosize=1;strokeColor=none;fillColor=none;" vertex="1" parent="1">
          <mxGeometry x="500" y="408" width="100" height="30" as="geometry" />
        </mxCell>
        <mxCell id="T6YAHszyVavbDTHl4T6u-55" value="" style="edgeStyle=orthogonalEdgeStyle;rounded=0;orthogonalLoop=1;jettySize=auto;html=1;" edge="1" parent="1" source="T6YAHszyVavbDTHl4T6u-18" target="T6YAHszyVavbDTHl4T6u-53">
          <mxGeometry relative="1" as="geometry" />
        </mxCell>
        <mxCell id="T6YAHszyVavbDTHl4T6u-18" value="produtora" style="whiteSpace=wrap;html=1;" vertex="1" parent="1">
          <mxGeometry x="-320" y="140" width="120" height="60" as="geometry" />
        </mxCell>
        <mxCell id="T6YAHszyVavbDTHl4T6u-19" value="id" style="text;html=1;align=center;verticalAlign=middle;resizable=0;points=[];autosize=1;strokeColor=none;fillColor=none;" vertex="1" parent="1">
          <mxGeometry x="-260" y="248" width="30" height="30" as="geometry" />
        </mxCell>
        <mxCell id="T6YAHszyVavbDTHl4T6u-20" value="nome" style="text;html=1;align=center;verticalAlign=middle;resizable=0;points=[];autosize=1;strokeColor=none;fillColor=none;" vertex="1" parent="1">
          <mxGeometry x="-260" y="290" width="50" height="30" as="geometry" />
        </mxCell>
        <mxCell id="T6YAHszyVavbDTHl4T6u-21" value="localizacao&lt;div&gt;&lt;br&gt;&lt;/div&gt;" style="text;html=1;align=center;verticalAlign=middle;resizable=0;points=[];autosize=1;strokeColor=none;fillColor=none;" vertex="1" parent="1">
          <mxGeometry x="-260" y="330" width="80" height="40" as="geometry" />
        </mxCell>
        <mxCell id="T6YAHszyVavbDTHl4T6u-22" value="numeroCll" style="text;html=1;align=center;verticalAlign=middle;resizable=0;points=[];autosize=1;strokeColor=none;fillColor=none;" vertex="1" parent="1">
          <mxGeometry x="-260" y="370" width="80" height="30" as="geometry" />
        </mxCell>
        <mxCell id="T6YAHszyVavbDTHl4T6u-23" value="numeroFax" style="text;html=1;align=center;verticalAlign=middle;resizable=0;points=[];autosize=1;strokeColor=none;fillColor=none;" vertex="1" parent="1">
          <mxGeometry x="-260" y="408" width="80" height="30" as="geometry" />
        </mxCell>
        <mxCell id="T6YAHszyVavbDTHl4T6u-24" style="edgeStyle=orthogonalEdgeStyle;rounded=0;orthogonalLoop=1;jettySize=auto;html=1;entryX=-0.02;entryY=0.515;entryDx=0;entryDy=0;entryPerimeter=0;" edge="1" parent="1" source="T6YAHszyVavbDTHl4T6u-1" target="T6YAHszyVavbDTHl4T6u-5">
          <mxGeometry relative="1" as="geometry">
            <Array as="points">
              <mxPoint x="140" y="230" />
              <mxPoint x="105" y="230" />
              <mxPoint x="105" y="266" />
            </Array>
          </mxGeometry>
        </mxCell>
        <mxCell id="T6YAHszyVavbDTHl4T6u-25" style="edgeStyle=orthogonalEdgeStyle;rounded=0;orthogonalLoop=1;jettySize=auto;html=1;entryX=-0.018;entryY=0.546;entryDx=0;entryDy=0;entryPerimeter=0;" edge="1" parent="1" source="T6YAHszyVavbDTHl4T6u-1" target="T6YAHszyVavbDTHl4T6u-3">
          <mxGeometry relative="1" as="geometry">
            <Array as="points">
              <mxPoint x="140" y="230" />
              <mxPoint x="105" y="230" />
              <mxPoint x="105" y="306" />
            </Array>
          </mxGeometry>
        </mxCell>
        <mxCell id="T6YAHszyVavbDTHl4T6u-27" style="edgeStyle=orthogonalEdgeStyle;rounded=0;orthogonalLoop=1;jettySize=auto;html=1;entryX=0.006;entryY=0.524;entryDx=0;entryDy=0;entryPerimeter=0;" edge="1" parent="1" source="T6YAHszyVavbDTHl4T6u-1" target="T6YAHszyVavbDTHl4T6u-6">
          <mxGeometry relative="1" as="geometry">
            <Array as="points">
              <mxPoint x="140" y="230" />
              <mxPoint x="105" y="230" />
              <mxPoint x="105" y="346" />
            </Array>
          </mxGeometry>
        </mxCell>
        <mxCell id="T6YAHszyVavbDTHl4T6u-28" style="edgeStyle=orthogonalEdgeStyle;rounded=0;orthogonalLoop=1;jettySize=auto;html=1;entryX=-0.009;entryY=0.555;entryDx=0;entryDy=0;entryPerimeter=0;" edge="1" parent="1" source="T6YAHszyVavbDTHl4T6u-1" target="T6YAHszyVavbDTHl4T6u-7">
          <mxGeometry relative="1" as="geometry">
            <Array as="points">
              <mxPoint x="140" y="230" />
              <mxPoint x="105" y="230" />
              <mxPoint x="105" y="387" />
            </Array>
          </mxGeometry>
        </mxCell>
        <mxCell id="T6YAHszyVavbDTHl4T6u-29" style="edgeStyle=orthogonalEdgeStyle;rounded=0;orthogonalLoop=1;jettySize=auto;html=1;entryX=0.005;entryY=0.567;entryDx=0;entryDy=0;entryPerimeter=0;" edge="1" parent="1" source="T6YAHszyVavbDTHl4T6u-1" target="T6YAHszyVavbDTHl4T6u-8">
          <mxGeometry relative="1" as="geometry">
            <Array as="points">
              <mxPoint x="140" y="230" />
              <mxPoint x="105" y="230" />
              <mxPoint x="105" y="425" />
            </Array>
          </mxGeometry>
        </mxCell>
        <mxCell id="T6YAHszyVavbDTHl4T6u-31" style="edgeStyle=orthogonalEdgeStyle;rounded=0;orthogonalLoop=1;jettySize=auto;html=1;entryX=-0.004;entryY=0.512;entryDx=0;entryDy=0;entryPerimeter=0;" edge="1" parent="1" target="T6YAHszyVavbDTHl4T6u-11">
          <mxGeometry relative="1" as="geometry">
            <mxPoint x="505" y="200" as="sourcePoint" />
            <Array as="points">
              <mxPoint x="505" y="230" />
              <mxPoint x="480" y="230" />
              <mxPoint x="480" y="263" />
            </Array>
          </mxGeometry>
        </mxCell>
        <mxCell id="T6YAHszyVavbDTHl4T6u-33" style="edgeStyle=orthogonalEdgeStyle;rounded=0;orthogonalLoop=1;jettySize=auto;html=1;entryX=0.006;entryY=0.587;entryDx=0;entryDy=0;entryPerimeter=0;" edge="1" parent="1" target="T6YAHszyVavbDTHl4T6u-12">
          <mxGeometry relative="1" as="geometry">
            <mxPoint x="505" y="200" as="sourcePoint" />
            <Array as="points">
              <mxPoint x="505" y="230" />
              <mxPoint x="480" y="230" />
              <mxPoint x="480" y="306" />
            </Array>
          </mxGeometry>
        </mxCell>
        <mxCell id="T6YAHszyVavbDTHl4T6u-35" style="edgeStyle=orthogonalEdgeStyle;rounded=0;orthogonalLoop=1;jettySize=auto;html=1;entryX=0.01;entryY=0.534;entryDx=0;entryDy=0;entryPerimeter=0;" edge="1" parent="1" target="T6YAHszyVavbDTHl4T6u-14">
          <mxGeometry relative="1" as="geometry">
            <mxPoint x="505" y="200" as="sourcePoint" />
            <Array as="points">
              <mxPoint x="505" y="230" />
              <mxPoint x="480" y="230" />
              <mxPoint x="480" y="346" />
            </Array>
          </mxGeometry>
        </mxCell>
        <mxCell id="T6YAHszyVavbDTHl4T6u-36" style="edgeStyle=orthogonalEdgeStyle;rounded=0;orthogonalLoop=1;jettySize=auto;html=1;entryX=-0.011;entryY=0.553;entryDx=0;entryDy=0;entryPerimeter=0;" edge="1" parent="1" target="T6YAHszyVavbDTHl4T6u-15">
          <mxGeometry relative="1" as="geometry">
            <mxPoint x="505" y="200" as="sourcePoint" />
            <Array as="points">
              <mxPoint x="505" y="230" />
              <mxPoint x="480" y="230" />
              <mxPoint x="480" y="387" />
            </Array>
          </mxGeometry>
        </mxCell>
        <mxCell id="T6YAHszyVavbDTHl4T6u-37" style="edgeStyle=orthogonalEdgeStyle;rounded=0;orthogonalLoop=1;jettySize=auto;html=1;entryX=0.007;entryY=0.63;entryDx=0;entryDy=0;entryPerimeter=0;" edge="1" parent="1" target="T6YAHszyVavbDTHl4T6u-17">
          <mxGeometry relative="1" as="geometry">
            <mxPoint x="505" y="200" as="sourcePoint" />
            <Array as="points">
              <mxPoint x="505" y="230" />
              <mxPoint x="480" y="230" />
              <mxPoint x="480" y="427" />
            </Array>
          </mxGeometry>
        </mxCell>
        <mxCell id="T6YAHszyVavbDTHl4T6u-39" style="edgeStyle=orthogonalEdgeStyle;rounded=0;orthogonalLoop=1;jettySize=auto;html=1;entryX=0.033;entryY=0.607;entryDx=0;entryDy=0;entryPerimeter=0;" edge="1" parent="1" source="T6YAHszyVavbDTHl4T6u-18" target="T6YAHszyVavbDTHl4T6u-19">
          <mxGeometry relative="1" as="geometry">
            <Array as="points">
              <mxPoint x="-260" y="220" />
              <mxPoint x="-280" y="220" />
              <mxPoint x="-280" y="266" />
            </Array>
          </mxGeometry>
        </mxCell>
        <mxCell id="T6YAHszyVavbDTHl4T6u-40" style="edgeStyle=orthogonalEdgeStyle;rounded=0;orthogonalLoop=1;jettySize=auto;html=1;entryX=-0.001;entryY=0.625;entryDx=0;entryDy=0;entryPerimeter=0;" edge="1" parent="1" source="T6YAHszyVavbDTHl4T6u-18" target="T6YAHszyVavbDTHl4T6u-20">
          <mxGeometry relative="1" as="geometry">
            <Array as="points">
              <mxPoint x="-260" y="220" />
              <mxPoint x="-280" y="220" />
              <mxPoint x="-280" y="309" />
            </Array>
          </mxGeometry>
        </mxCell>
        <mxCell id="T6YAHszyVavbDTHl4T6u-41" style="edgeStyle=orthogonalEdgeStyle;rounded=0;orthogonalLoop=1;jettySize=auto;html=1;entryX=-0.001;entryY=0.583;entryDx=0;entryDy=0;entryPerimeter=0;" edge="1" parent="1" source="T6YAHszyVavbDTHl4T6u-18" target="T6YAHszyVavbDTHl4T6u-21">
          <mxGeometry relative="1" as="geometry">
            <Array as="points">
              <mxPoint x="-260" y="220" />
              <mxPoint x="-280" y="220" />
              <mxPoint x="-280" y="353" />
            </Array>
          </mxGeometry>
        </mxCell>
        <mxCell id="T6YAHszyVavbDTHl4T6u-42" style="edgeStyle=orthogonalEdgeStyle;rounded=0;orthogonalLoop=1;jettySize=auto;html=1;entryX=0.008;entryY=0.511;entryDx=0;entryDy=0;entryPerimeter=0;" edge="1" parent="1" source="T6YAHszyVavbDTHl4T6u-18" target="T6YAHszyVavbDTHl4T6u-22">
          <mxGeometry relative="1" as="geometry">
            <Array as="points">
              <mxPoint x="-260" y="220" />
              <mxPoint x="-280" y="220" />
              <mxPoint x="-280" y="385" />
            </Array>
          </mxGeometry>
        </mxCell>
        <mxCell id="T6YAHszyVavbDTHl4T6u-43" style="edgeStyle=orthogonalEdgeStyle;rounded=0;orthogonalLoop=1;jettySize=auto;html=1;entryX=0.008;entryY=0.596;entryDx=0;entryDy=0;entryPerimeter=0;" edge="1" parent="1" source="T6YAHszyVavbDTHl4T6u-18" target="T6YAHszyVavbDTHl4T6u-23">
          <mxGeometry relative="1" as="geometry">
            <Array as="points">
              <mxPoint x="-260" y="220" />
              <mxPoint x="-280" y="220" />
              <mxPoint x="-280" y="426" />
            </Array>
          </mxGeometry>
        </mxCell>
        <mxCell id="T6YAHszyVavbDTHl4T6u-59" value="" style="edgeStyle=orthogonalEdgeStyle;rounded=0;orthogonalLoop=1;jettySize=auto;html=1;" edge="1" parent="1" source="T6YAHszyVavbDTHl4T6u-45" target="T6YAHszyVavbDTHl4T6u-58">
          <mxGeometry relative="1" as="geometry" />
        </mxCell>
        <mxCell id="T6YAHszyVavbDTHl4T6u-45" value="" style="rhombus;whiteSpace=wrap;html=1;" vertex="1" parent="1">
          <mxGeometry x="270" y="130" width="80" height="80" as="geometry" />
        </mxCell>
        <mxCell id="T6YAHszyVavbDTHl4T6u-48" value="1:n" style="text;html=1;align=center;verticalAlign=middle;resizable=0;points=[];autosize=1;strokeColor=none;fillColor=none;" vertex="1" parent="1">
          <mxGeometry x="390" y="138" width="40" height="30" as="geometry" />
        </mxCell>
        <mxCell id="T6YAHszyVavbDTHl4T6u-49" value="1:n" style="text;html=1;align=center;verticalAlign=middle;resizable=0;points=[];autosize=1;strokeColor=none;fillColor=none;" vertex="1" parent="1">
          <mxGeometry x="200" y="138" width="40" height="30" as="geometry" />
        </mxCell>
        <mxCell id="T6YAHszyVavbDTHl4T6u-53" value="" style="rhombus;whiteSpace=wrap;html=1;" vertex="1" parent="1">
          <mxGeometry x="-100" y="130" width="80" height="80" as="geometry" />
        </mxCell>
        <mxCell id="T6YAHszyVavbDTHl4T6u-56" value="1:n" style="text;html=1;align=center;verticalAlign=middle;resizable=0;points=[];autosize=1;strokeColor=none;fillColor=none;" vertex="1" parent="1">
          <mxGeometry x="-180" y="138" width="40" height="30" as="geometry" />
        </mxCell>
        <mxCell id="T6YAHszyVavbDTHl4T6u-57" value="1:1" style="text;html=1;align=center;verticalAlign=middle;resizable=0;points=[];autosize=1;strokeColor=none;fillColor=none;" vertex="1" parent="1">
          <mxGeometry x="30" y="138" width="40" height="30" as="geometry" />
        </mxCell>
        <mxCell id="T6YAHszyVavbDTHl4T6u-58" value="" style="whiteSpace=wrap;html=1;" vertex="1" parent="1">
          <mxGeometry x="250" y="300" width="120" height="60" as="geometry" />
        </mxCell>
        <mxCell id="T6YAHszyVavbDTHl4T6u-60" value="idFilme" style="text;html=1;align=center;verticalAlign=middle;resizable=0;points=[];autosize=1;strokeColor=none;fillColor=none;" vertex="1" parent="1">
          <mxGeometry x="500" y="458" width="60" height="30" as="geometry" />
        </mxCell>
        <mxCell id="T6YAHszyVavbDTHl4T6u-61" style="edgeStyle=orthogonalEdgeStyle;rounded=0;orthogonalLoop=1;jettySize=auto;html=1;entryX=0.006;entryY=0.543;entryDx=0;entryDy=0;entryPerimeter=0;" edge="1" parent="1" source="T6YAHszyVavbDTHl4T6u-10" target="T6YAHszyVavbDTHl4T6u-60">
          <mxGeometry relative="1" as="geometry">
            <Array as="points">
              <mxPoint x="510" y="230" />
              <mxPoint x="480" y="230" />
              <mxPoint x="480" y="474" />
            </Array>
          </mxGeometry>
        </mxCell>
      </root>
    </mxGraphModel>
  </diagram>
</mxfile>
